HIERARCHY
ROOT root
{
	OFFSET 0.000000 0.000000 0.000000
	CHANNELS 6 Xposition Yposition Zposition Zrotation Yrotation Xrotation
	JOINT lhip
	{
		OFFSET 0.058581 -0.082280 -0.017664
		CHANNELS 3 Zrotation Yrotation Xrotation
		JOINT lknee
		{
			OFFSET 0.043451 -0.386469 0.008037
			CHANNELS 3 Zrotation Yrotation Xrotation
			JOINT lankle
			{
				OFFSET -0.014790 -0.426874 -0.037428
				CHANNELS 3 Zrotation Yrotation Xrotation
				JOINT ltoe
				{
					OFFSET 0.041054 -0.060286 0.122042
					CHANNELS 3 Zrotation Yrotation Xrotation
					End Site
					{
						OFFSET 0.000000 0.000000 0.000000
					}
				}
			}
		}
	}
	JOINT rhip
	{
		OFFSET -0.060310 -0.090513 -0.013543
		CHANNELS 3 Zrotation Yrotation Xrotation
		JOINT rknee
		{
			OFFSET -0.043257 -0.383688 -0.004843
			CHANNELS 3 Zrotation Yrotation Xrotation
			JOINT rankle
			{
				OFFSET 0.019056 -0.420046 -0.034562
				CHANNELS 3 Zrotation Yrotation Xrotation
				JOINT rtoe
				{
					OFFSET -0.034840 -0.062106 0.130323
					CHANNELS 3 Zrotation Yrotation Xrotation
					End Site
					{
						OFFSET 0.000000 0.000000 0.000000
					}
				}
			}
		}
	}
	JOINT lowerback
	{
		OFFSET 0.004439 0.124404 -0.038385
		CHANNELS 3 Zrotation Yrotation Xrotation
		JOINT upperback
		{
			OFFSET 0.004488 0.137956 0.026820
			CHANNELS 3 Zrotation Yrotation Xrotation
			JOINT chest
			{
				OFFSET -0.002265 0.056032 0.002855
				CHANNELS 3 Zrotation Yrotation Xrotation
				JOINT lowerneck
				{
					OFFSET -0.013390 0.211636 -0.033468
					CHANNELS 3 Zrotation Yrotation Xrotation
					JOINT upperneck
					{
						OFFSET 0.010113 0.088937 0.050410
						CHANNELS 3 Zrotation Yrotation Xrotation
						End Site
						{
							OFFSET 0.000000 0.000000 0.000000
						}
					}
				}
				JOINT lclavicle
				{
					OFFSET 0.071702 0.114000 -0.018898
					CHANNELS 3 Zrotation Yrotation Xrotation
					JOINT lshoulder
					{
						OFFSET 0.122921 0.045205 -0.019046
						CHANNELS 3 Zrotation Yrotation Xrotation
						JOINT lelbow
						{
							OFFSET 0.255332 -0.015649 -0.022946
							CHANNELS 3 Zrotation Yrotation Xrotation
							JOINT lwrist
							{
								OFFSET 0.265709 0.012698 -0.007375
								CHANNELS 3 Zrotation Yrotation Xrotation
								End Site
								{
									OFFSET 0.000000 0.000000 0.000000
								}
							}
						}
					}
				}
				JOINT rclavicle
				{
					OFFSET -0.082954 0.112472 -0.023707
					CHANNELS 3 Zrotation Yrotation Xrotation
					JOINT rshoulder
					{
						OFFSET -0.113228 0.046853 -0.008472
						CHANNELS 3 Zrotation Yrotation Xrotation
						JOINT relbow
						{
							OFFSET -0.260127 -0.014369 -0.031269
							CHANNELS 3 Zrotation Yrotation Xrotation
							JOINT rwrist
							{
								OFFSET -0.269108 0.006794 -0.006027
								CHANNELS 3 Zrotation Yrotation Xrotation
								End Site
								{
									OFFSET 0.000000 0.000000 0.000000
								}
							}
						}
					}
				}
			}
		}
	}
}
MOTION
Frames: 8
Frame Time: 0.033333
-1.619117 0.320388 0.997749 89.799023 -2.288137 81.126222 -4.104149 -0.152856 -0.485166 -6.069092 -11.331690 10.196343 5.535949 7.474143 -9.875616 0.000000 -0.000000 0.000000 -2.215322 -1.501517 -7.681732 0.890251 -0.347845 57.272816 3.899891 -9.798404 -0.611638 0.000000 -0.000000 0.000000 -1.330142 -0.020966 13.913024 1.487286 0.661663 -3.251477 -1.301552 -0.892480 2.550111 3.039978 3.884935 -2.778129 -5.672406 -0.376896 14.475429 -29.981883 6.132378 -0.631926 -51.621454 -3.578283 9.072104 4.882057 -23.102494 11.162314 -5.321835 0.224808 1.218903 33.004880 0.050406 -1.813634 48.559386 9.185163 13.186094 -12.885637 20.111411 -13.113053 6.121415 1.520581 -2.752675 
-1.582175 0.321515 1.000042 91.763263 -1.833132 80.734381 -3.387266 0.787637 3.757716 -6.121287 -13.581706 7.355882 4.973769 7.103669 -11.015144 0.000000 -0.000000 0.000000 -2.425751 -1.597586 -10.872688 1.287404 -2.343952 54.366908 4.464698 -9.498177 -3.470665 0.000000 -0.000000 0.000000 -1.340981 -1.235386 14.062864 1.860634 -0.053586 -3.059756 -0.925669 -1.820051 2.016809 2.945148 4.339306 -1.192844 -5.379285 -0.760191 14.132061 -29.295711 4.438411 0.388384 -51.409493 -5.069390 8.898322 5.234439 -23.933077 9.724356 -4.922268 0.536991 1.275938 32.678260 0.308476 -0.606436 49.278636 8.037653 12.597565 -13.275079 20.200957 -13.541176 6.445860 1.006547 -3.037618 
-1.546918 0.321876 1.000766 93.554957 -1.209968 80.479506 -2.065697 2.544203 6.985333 -6.354635 -15.973654 6.173470 3.728189 5.810277 -13.003354 0.000000 -0.000000 0.000000 -2.407010 -2.255644 -13.565557 0.735105 -4.396731 49.280013 4.848128 -10.537710 -5.351012 0.000000 -0.000000 0.000000 -1.294171 -2.656927 15.200738 1.974606 -0.362328 -3.523064 -0.419967 -2.422314 2.084955 3.059448 4.704137 -2.501605 -5.218932 -1.003830 14.140519 -28.909944 4.185819 -0.181921 -50.644604 -6.960878 8.717935 4.635551 -26.004021 10.197718 -3.635380 0.373538 1.760110 32.897169 -0.450190 -1.660734 49.442712 6.671104 12.492330 -12.778591 20.600679 -12.945302 6.095451 1.325556 -2.604647 
-1.502019 0.322041 0.998144 95.209621 -0.887008 80.417396 -0.783045 3.938935 10.818673 -6.310268 -18.163161 4.581347 2.872658 4.601016 -14.708097 0.000000 -0.000000 0.000000 -2.698919 -2.996981 -15.870617 -0.101357 -6.715367 39.567448 5.880520 -11.173066 -6.517660 0.000000 -0.000000 0.000000 -1.242541 -3.900542 15.979991 1.865398 -0.841001 -3.817766 0.058586 -3.135171 2.187904 2.926918 5.353117 -3.329834 -4.776130 -1.028703 13.797308 -28.021494 3.959449 -0.691572 -50.096265 -9.137272 8.656965 4.458129 -29.292625 10.333149 -2.579664 0.129810 1.131367 33.082784 -1.614224 -2.379723 49.967105 5.707579 12.279943 -12.456608 20.673595 -12.037693 6.080770 1.295940 -2.385164 
-1.474946 0.322236 0.994620 95.744920 -0.929018 80.728547 -0.354191 4.539648 12.588493 -6.246223 -18.749121 3.889106 2.946570 4.255806 -15.503833 0.000000 -0.000000 0.000000 -2.784426 -3.427394 -17.170039 -0.475795 -7.320247 32.944325 6.354734 -10.971114 -5.936109 0.000000 -0.000000 0.000000 -1.272657 -4.129597 16.110703 1.787139 -0.996193 -4.100048 0.338514 -3.472109 2.280471 2.629382 5.337043 -3.891162 -4.452969 -1.125781 13.825429 -27.686150 3.835013 -1.006595 -49.640510 -10.436481 8.613841 4.526155 -30.768589 10.238676 -1.821030 -0.650283 1.291039 33.035526 -2.116880 -2.511896 50.358186 4.997606 12.149622 -12.473987 20.560603 -11.951787 5.822745 1.263730 -2.367545 
-1.439932 0.321367 0.988560 95.699801 -1.050505 81.601748 -0.479351 4.452633 13.998070 -5.895858 -18.644101 3.675481 3.910188 4.602626 -15.888205 0.000000 -0.000000 0.000000 -2.400913 -3.536759 -18.756993 -0.886389 -6.951089 22.558033 6.755707 -10.958632 -2.394267 0.000000 -0.000000 0.000000 -1.242215 -4.211588 15.369379 1.683205 -1.080143 -4.103922 0.592336 -3.629807 2.035320 2.159517 5.268538 -3.296381 -3.976906 -0.997706 13.441348 -27.275903 3.463814 -0.770278 -49.104313 -12.180652 8.561112 5.317071 -32.296412 9.050757 -1.268692 -1.204329 0.990003 32.892118 -2.281300 -1.858743 51.019645 4.446784 12.398541 -12.947040 19.440522 -12.640505 5.616149 0.934765 -2.867876 
-1.403880 0.320006 0.981413 95.339345 -1.076296 82.682872 -0.899118 4.501932 14.876051 -5.241551 -17.961863 4.080417 5.406445 5.392068 -16.197106 0.000000 -0.000000 0.000000 -1.708662 -3.223244 -20.054523 -1.053803 -4.743392 12.198170 6.639937 -10.330887 1.263759 0.000000 -0.000000 0.000000 -1.092061 -4.257176 14.937725 1.608048 -0.916774 -4.569180 0.862039 -3.684716 2.092446 1.507189 5.235890 -4.243966 -3.504692 -0.357298 13.175775 -27.108507 3.791031 -1.281931 -48.856506 -13.415785 8.817423 6.135379 -34.193454 8.185913 0.139439 -1.784944 0.501002 32.997505 -2.742317 -1.883176 51.142568 3.890347 12.939821 -12.937729 18.204343 -12.577505 4.869514 0.402794 -2.826699 
-1.366246 0.317708 0.973677 95.106181 -0.824411 83.290780 -0.759881 4.717057 16.013479 -4.869213 -17.759422 5.333905 5.611880 6.020566 -17.597740 0.000000 -0.000000 0.000000 -1.052026 -3.037389 -20.949633 -1.043897 -4.024368 4.675023 8.100737 -8.330198 -0.272385 0.000000 -0.000000 0.000000 -0.632799 -4.339368 14.572509 1.631611 -1.119745 -4.693163 1.012183 -3.657527 1.932636 1.122622 5.677596 -4.165701 -3.422529 -0.501674 12.963594 -26.876583 3.678071 -1.462973 -48.746384 -14.189252 8.779601 6.930010 -35.644256 6.724255 0.567972 -2.217781 0.215340 32.894400 -2.750615 -1.294508 51.231734 3.604111 12.773697 -12.856078 17.072894 -12.349372 4.587617 -0.059987 -2.792022 
